<?xml version="1.0" encoding="utf-8"?>
<!-- Generator: Adobe Illustrator 27.2.0, SVG Export Plug-In . SVG Version: 6.00 Build 0)  -->
<svg version="1.1" id="Layer_1" xmlns="http://www.w3.org/2000/svg" xmlns:xlink="http://www.w3.org/1999/xlink" x="0px" y="0px"
	 viewBox="0 0 1740 410" style="enable-background:new 0 0 1740 410;" xml:space="preserve">
<style type="text/css">
	.st0{fill:#060606;}
</style>
<path class="st0" d="M212.1,157.2h49.7v-52.7c0-14.7-7.4-22.1-22.1-22.1h-5.5c-14.7,0-22.1,7.4-22.1,22.1V157.2z M212,190.8l0.1,58
	c0,14.7,7.4,22.1,22.1,22.1h6.4c14.7,0,22.1-7.4,22.1-22.1v-28.5h34v27.1c0,37.2-18.8,56.1-56.1,56.1h-7.4
	c-37.2,0-56.1-18.8-56.1-51.7V110.2c0-41.6,18.8-60.4,56.1-60.4h7.4c37.2,0,56.1,18.9,56.1,56.1l-0.1,85H212z"/>
<path class="st0" d="M354.3,257.5c9.7,8.3,20.7,12.9,32.2,12.9c12.9,0,20.2-6,20.2-20.2V103.1c0-14.3-7.4-20.2-20.2-20.2
	c-11.5,0-22.5,4.6-32.2,12.9V257.5z M319.4,52.5h34.9v16.1c8.3-8.7,22.5-18.9,42.8-18.9c29.9,0,44.6,19.8,44.6,49.2v155.4
	c0,29.4-14.7,49.2-44.6,49.2c-20.2,0-34.5-9.7-42.8-17.9v80.1h-34.9V52.5z"/>
<path class="st0" d="M546.4,258.9V177l-31.7,12c-12.9,5.1-17,11.5-17,25.7v37.7c0,12,6,17.9,17,17.9
	C525.3,270.4,534.9,266.7,546.4,258.9 M462.7,214.3c0-30.8,10.1-43.2,36.8-52.4l46.9-16.1v-41.4c0-14.7-7.4-22.5-22.1-22.5h-5.7
	c-14.7,0-22.1,7.8-22.1,22.5v35.2h-34v-33.8c0-37.2,18.8-56.1,56.1-56.1h6.6c37.2,0,56.1,18.9,56.1,56.1v194.9h-34.9v-15.6
	c-9.7,9.2-22.5,18.4-42.8,18.4c-28,0-40.9-16.1-40.9-43.7V214.3z"/>
<path class="st0" d="M722.6,300.7h-34.9v-200c0-12.4-6-17.9-16.5-17.9c-9.7,0-19.8,3.7-32.2,12.4v205.5H604V52.5H639v16.1
	c10.1-9.7,23.4-18.9,42.8-18.9c17.9,0,29.9,7.4,36.3,20.2c12.4-10.6,27.1-20.2,47.3-20.2c27.1,0,40.9,16.6,40.9,43.7v207.3h-34.9
	v-200c0-12.4-6-17.9-16.5-17.9c-9.7,0-19.8,3.7-32.2,12.4V300.7z"/>
<polygon class="st0" points="42.6,160.7 42.6,194.3 132.4,278.7 132.4,232.1 73.6,177 132.4,121 132.4,75.3 "/>
<polygon class="st0" points="850.6,121 909.4,177 850.6,232.1 850.6,278.7 940.4,194.3 940.4,160.7 850.6,75.4 "/>
<path class="st0" d="M1664.4,119.8l-4.5,0.6h-92.4v19.2h26.1l-15.3,4.2c6.3,10.5,14.1,19.8,24,27.9c-14.7,6.3-31.2,10.2-48.9,12.6
	c3.9,5.1,8.7,13.8,10.5,20.1c21.6-3.9,41.4-9.9,58.5-18.6c17.1,9.6,37.5,16.5,60.6,20.1c2.7-6.3,9-15.3,14.4-20.1
	c-19.8-2.4-38.1-6.9-54-13.2c15.6-12.3,27.6-28.2,35.1-48.6L1664.4,119.8z M1645.8,139.6c-6,8.4-14.1,15.9-23.7,21.9
	c-9.6-6.3-17.4-13.8-23.1-21.9H1645.8z M1429.9,229.9h69c-19.8,20.1-48.3,36.9-76.8,47.4c4.8,5.1,12.9,15.3,15.9,20.7
	c15-6.6,30.3-15.3,44.7-25.2v46.5h28.5v-9.6h128.4v8.4h29.7v-69.6h-156.8c6-6,11.7-12,16.5-18.6h161.9v-20.1h-260.9V229.9z
	 M1639.5,290.1h-128.4V268h128.4V290.1z M1525.6,138.1v42.3c0,3-0.9,3.6-3.6,3.6c-2.4,0-8.7,0-16.2-0.3v-37.2h-18.3v39.6h15.6
	c3,5.7,5.7,13.2,6.6,18.6c14.1,0,23.4-0.3,30.3-3.9c7.2-3.9,9-9.9,9-20.1v-44.1l10.8-0.6l0.6-19.8l-11.4,0.6V64.3h-39.9
	c2.4-5.7,4.8-11.7,7.2-18l-26.7-3c-0.9,6-3,13.8-5.4,21h-33v57.9l-27,1.2l1.8,20.4l24.6-1.5c-1.8,18.3-8.1,36.3-27.9,50.4
	c4.8,3,13.5,10.5,16.5,14.7c23.4-17.1,31.2-42.3,33-66.3L1525.6,138.1z M1472.8,83.5h52.8V118l-52.8,3V83.5z M1482.1,92.5
	c4.8,7.8,9,18.3,10.5,25.8l16.5-7.2c-1.5-6.6-6.3-17.4-11.4-24.9L1482.1,92.5z M1602.6,69.7h32.4v17.4c0,19.5,5.1,24.6,23.1,24.6
	h16.8c14.7,0,20.4-6.6,22.2-32.1c-6.3-1.5-15-4.5-19.5-7.8c-0.6,18.9-1.5,21.6-5.7,21.6h-9.6c-3.9,0-4.5-0.6-4.5-6.6V50.2H1581v20.7
	c0,11.7-3.3,23.4-25.2,33c4.8,3.3,12.9,11.7,15.9,16.2c25.5-12.3,30.9-31.2,30.9-48.6V69.7z M1276,281.2c-17.1,0-27.6-4.8-27.6-15.9
	c0-14.1,7.5-35.1,134.6-179.3c1.5-1.5,3-3.3,3.6-4.8l-17.4-9.3l-6.6,1.2h-135v26.4h107.4c-108.9,127.8-114.6,149.4-114.6,169.1
	c0,24,17.7,39.3,56.7,39.3h68.4c32.7,0,43.8-11.7,47.4-75.3c-7.5-1.2-17.7-5.1-24.9-9.3c-1.5,49.2-5.4,57.9-21,57.9H1276z
	 M1191.5,45.4c-16.2,44.1-42.9,87.6-71.1,115.5c4.8,6.3,12.6,21.3,15.3,28.2c9.3-9.9,18.6-21.3,27.3-33.6v163.4h27V112.6
	c10.5-19.2,20.1-39.3,27.6-59.4L1191.5,45.4z"/>
<rect x="1020.2" y="49.4" class="st0" width="5.5" height="250"/>
</svg>
